<?xml version="1.0" encoding="UTF-8" standalone="no"?>
<!-- Created with Inkscape (http://www.inkscape.org/) -->

<svg
   width="142.6969mm"
   height="108.86765mm"
   viewBox="0 0 142.6969 108.86765"
   version="1.1"
   id="svg8963"
   xml:space="preserve"
   inkscape:version="1.2.2 (b0a84865, 2022-12-01)"
   sodipodi:docname="logo.svg"
   xmlns:inkscape="http://www.inkscape.org/namespaces/inkscape"
   xmlns:sodipodi="http://sodipodi.sourceforge.net/DTD/sodipodi-0.dtd"
   xmlns="http://www.w3.org/2000/svg"
   xmlns:svg="http://www.w3.org/2000/svg"><sodipodi:namedview
     id="namedview8965"
     pagecolor="#505050"
     bordercolor="#eeeeee"
     borderopacity="1"
     inkscape:showpageshadow="0"
     inkscape:pageopacity="0"
     inkscape:pagecheckerboard="0"
     inkscape:deskcolor="#505050"
     inkscape:document-units="mm"
     showgrid="false"
     inkscape:zoom="0.47619753"
     inkscape:cx="335.99502"
     inkscape:cy="224.69667"
     inkscape:window-width="1443"
     inkscape:window-height="840"
     inkscape:window-x="0"
     inkscape:window-y="38"
     inkscape:window-maximized="0"
     inkscape:current-layer="layer2" /><defs
     id="defs8960" /><g
     inkscape:groupmode="layer"
     id="layer2"
     inkscape:label="Logo"
     style="display:inline"
     transform="translate(-71.386487,-43.938205)"><path
       style="fill:#f29c90;fill-opacity:1;stroke:none;stroke-width:0.264583px;stroke-linecap:butt;stroke-linejoin:miter;stroke-opacity:1"
       d="M 77.153077,76.911654 H 110.03677 V 57.111476 Z"
       id="path9559"
       transform="translate(31.013268,-13.03334)" /><path
       style="fill:#facf5f;fill-opacity:1;stroke:none;stroke-width:0.264583px;stroke-linecap:butt;stroke-linejoin:miter;stroke-opacity:1"
       d="M 143.91861,43.938205 V 63.94828 h 34.0731 z"
       id="path9563" /><path
       style="fill:#f7ac59;fill-opacity:1;stroke:none;stroke-width:0.264583px;stroke-linecap:butt;stroke-linejoin:miter;stroke-opacity:1"
       d="m 115.37277,67.166682 h -7.48628 v 10.284899 z"
       id="path9565" /><path
       style="fill:#faa96a;fill-opacity:1;stroke:none;stroke-width:0.264583px;stroke-linecap:butt;stroke-linejoin:miter;stroke-opacity:1"
       d="m 171.27504,66.956786 h 7.55625 v 10.424829 z"
       id="path9567" /><path
       style="fill:#fac180;fill-opacity:1;stroke:none;stroke-width:0.264583px;stroke-linecap:butt;stroke-linejoin:miter;stroke-opacity:1"
       d="m 165.95768,114.95298 h 13.22344 V 84.028319 l -14.41285,27.986121 z"
       id="path9569" /><path
       style="fill:#00b79e;fill-opacity:1;stroke:none;stroke-width:0.264583px;stroke-linecap:butt;stroke-linejoin:miter;stroke-opacity:1"
       d="M 120.20038,115.02294 H 107.53666 V 83.468595 l 14.27292,29.035595 z"
       id="path9571" /><path
       style="fill:#f39d8e;fill-opacity:1;stroke:none;stroke-width:0.264583px;stroke-linecap:butt;stroke-linejoin:miter;stroke-opacity:1"
       d="m 106.83701,118.03145 h 12.38385 l -6.4368,13.7132 c -0.60783,-0.0743 -1.3956,-0.58362 -1.74914,-1.25937 -1.38484,-2.64695 -3.90857,-8.63554 -4.19791,-12.45383 z"
       id="path9573"
       sodipodi:nodetypes="cccsc" /><path
       style="fill:#f39c8d;fill-opacity:1;stroke:none;stroke-width:0.264583px;stroke-linecap:butt;stroke-linejoin:miter;stroke-opacity:1"
       d="m 179.39102,118.24135 -12.17397,-0.07 6.71667,13.78317 c 0.76451,-0.15563 1.1731,-0.79127 1.46927,-1.39931 1.85129,-3.80073 3.43648,-8.05368 3.98803,-12.31386 z"
       id="path9575"
       sodipodi:nodetypes="cccsc" /><path
       style="fill:#f7c83d;fill-opacity:1;stroke:none;stroke-width:0.264583px;stroke-linecap:butt;stroke-linejoin:miter;stroke-opacity:1"
       d="m 114.04343,134.89309 58.00123,0.20989 c -3.09936,8.05496 -18.15121,17.84918 -29.66528,17.70122 -11.17312,-0.14358 -24.75154,-9.13703 -28.33595,-17.91111 z"
       id="path9577"
       sodipodi:nodetypes="ccac" /><path
       id="path9579"
       style="fill:#fcde02;fill-opacity:1;stroke:none;stroke-width:0.264583px;stroke-linecap:butt;stroke-linejoin:miter;stroke-opacity:1"
       d="m 138.95069,88.546533 a 8.9970589,8.9970589 0 0 1 -5.95726,5.583122 L 115.72265,132.0245 170.43559,131.81469 153.479,94.933223 a 9.1265135,9.3854218 0 0 1 -6.54378,-6.38669 z m -2.56677,10.286194 c 1.25087,0.0126 2.64973,1.066543 3.39101,2.079463 1.39411,1.90495 1.29806,4.87321 1.01544,7.02541 -0.19631,1.49492 -2.26978,1.3211 -3.45198,0.48731 -1.61252,-1.13728 -2.79156,-3.1194 -3.04581,-5.07618 -0.1943,-1.49537 -0.11045,-3.713365 1.25884,-4.344954 0.26302,-0.121322 0.54384,-0.173956 0.8325,-0.171049 z m 12.95632,0.04393 c 1.23708,-0.01921 2.33976,1.875453 2.54351,3.124873 0.40527,2.48505 -1.02917,5.77877 -3.34191,6.77426 -0.9839,0.42351 -2.81714,0.69355 -3.0701,-0.94826 -0.27545,-1.7878 -0.35725,-3.80961 0.36122,-5.50096 0.59033,-1.38971 2.12862,-2.96656 3.04684,-3.351728 0.15457,-0.06484 0.30852,-0.09583 0.46044,-0.09818 z" /><path
       id="path9585"
       style="fill:#f7c93b;fill-opacity:1;stroke:none;stroke-width:0.264583px;stroke-linecap:butt;stroke-linejoin:miter;stroke-opacity:1"
       d="m 119.22735,67.186597 -9.96787,13.398665 14.17485,27.703218 5.89008,-13.527856 0.34158,-0.30179 a 8.9970589,8.9970589 0 0 1 -8.17315,-8.954492 8.9970589,8.9970589 0 0 1 8.99687,-8.996867 8.9970589,8.9970589 0 0 1 8.99532,8.867676 h 7.07347 a 9.1265135,9.3854218 0 0 1 9.11003,-8.932272 9.1265135,9.3854218 0 0 1 9.12658,9.384957 9.1265135,9.3854218 0 0 1 -8.1225,9.327596 l 6.31021,13.715438 14.43426,-27.897518 -9.51518,-13.786755 z" /><path
       style="fill:#fefefe;fill-opacity:1;stroke:none;stroke-width:0.264583px;stroke-linecap:butt;stroke-linejoin:miter;stroke-opacity:1"
       d="M 105.24617,67.445577 V 93.918938 C 97.750328,95.359098 90.111792,88.408702 90.100043,81.685526 90.087887,74.729884 95.716497,67.592811 105.24617,67.445577 Z"
       id="path9587"
       sodipodi:nodetypes="ccsc" /><path
       style="opacity:1;fill:#fcdf02;fill-opacity:1;stroke:none;stroke-width:0.264583px;stroke-linecap:butt;stroke-linejoin:miter;stroke-opacity:1"
       d="m 105.37703,63.897552 c -3.61409,-1.353803 -8.64721,-4.086291 -10.842282,-4.061409 -12.977689,0.147103 -20.305747,8.567014 -22.687732,17.901035 -2.059867,8.071776 3.070977,18.081357 9.802626,22.988652 5.08732,3.70859 13.685382,3.6761 18.806728,1.73708 1.69938,-0.64341 4.72507,-2.718537 4.72507,-2.718537 V 97.996742 C 96.935606,98.340934 86.787604,90.85449 86.961486,81.261278 87.119175,72.561455 93.096091,65.182556 105.37703,63.897552 Z"
       id="path9589"
       sodipodi:nodetypes="csaasccsc" /><path
       style="fill:#fcdf02;fill-opacity:1;stroke:none;stroke-width:0.264583px;stroke-linecap:butt;stroke-linejoin:miter;stroke-opacity:1"
       d="m 181.8063,64.112839 c 1.25678,-1.345958 5.77227,-3.940115 8.94429,-4.110872 7.08486,-0.381393 14.23306,2.809861 18.44721,8.026154 4.25986,5.272873 6.12304,13.494064 4.01308,19.93593 -2.46251,7.518234 -7.58877,13.908619 -17.54103,15.987579 -5.83658,1.21922 -13.72214,-3.49526 -13.72214,-3.49526 v -2.977444 c 10.11176,0.360743 18.2739,-8.433956 18.03633,-16.601783 C 199.60879,67.975518 187.44989,64.333201 181.8063,64.112839 Z"
       id="path9591"
       sodipodi:nodetypes="csaasccsc" /><path
       style="fill:#fefefe;fill-opacity:1;stroke:none;stroke-width:0.264583px;stroke-linecap:butt;stroke-linejoin:miter;stroke-opacity:1"
       d="m 181.75353,67.445577 v 26.796997 c 9.60102,0.723931 15.37295,-6.71032 15.34031,-13.527953 -0.0324,-6.760861 -7.00472,-13.19683 -15.34031,-13.269044 z"
       id="path9593"
       sodipodi:nodetypes="ccac" /></g></svg>
