<?xml version="1.0" encoding="UTF-8" standalone="no"?>
<svg
   width="256"
   height="256"
   viewBox="0 0 256 256"
   version="1.1"
   id="svg37437"
   sodipodi:docname="pixel-where.svg"
   inkscape:export-filename="line-3px.png"
   inkscape:export-xdpi="95.9854"
   inkscape:export-ydpi="95.9854"
   inkscape:version="1.2.2 (b0a84865, 2022-12-01)"
   xmlns:inkscape="http://www.inkscape.org/namespaces/inkscape"
   xmlns:sodipodi="http://sodipodi.sourceforge.net/DTD/sodipodi-0.dtd"
   xmlns="http://www.w3.org/2000/svg"
   xmlns:svg="http://www.w3.org/2000/svg">
  <defs
     id="defs51514" />
  <sodipodi:namedview
     id="namedview51512"
     pagecolor="#505050"
     bordercolor="#eeeeee"
     borderopacity="1"
     inkscape:showpageshadow="0"
     inkscape:pageopacity="0"
     inkscape:pagecheckerboard="0"
     inkscape:deskcolor="#505050"
     showgrid="false"
     inkscape:zoom="3.8185585"
     inkscape:cx="111.1676"
     inkscape:cy="110.51291"
     inkscape:window-width="1276"
     inkscape:window-height="796"
     inkscape:window-x="0"
     inkscape:window-y="38"
     inkscape:window-maximized="0"
     inkscape:current-layer="svg37437" />
  <rect
     style="fill:#ffffff;stroke-width:1"
     id="rect38223"
     width="256"
     height="256"
     x="0"
     y="0" />
  <path
     style="fill:none;stroke:#b9b9b9;stroke-width:1px;stroke-linecap:butt;stroke-linejoin:miter;stroke-opacity:1"
     d="M 128.5,-5.0595866 V 262.17858"
     id="path53041" />
  <path
     style="fill:none;stroke:#b9b9b9;stroke-width:1px;stroke-linecap:butt;stroke-linejoin:miter;stroke-opacity:1"
     d="M 160.5,-5.0595866 V 262.17858"
     id="path53043" />
  <path
     style="fill:none;stroke:#b9b9b9;stroke-width:1px;stroke-linecap:butt;stroke-linejoin:miter;stroke-opacity:1"
     d="M 32.5,-5 V 262.23817"
     id="path53045" />
  <path
     style="fill:none;stroke:#b9b9b9;stroke-width:1px;stroke-linecap:butt;stroke-linejoin:miter;stroke-opacity:1"
     d="M 192.5,-5.0595866 V 262.17858"
     id="path53047" />
  <path
     style="fill:none;stroke:#b9b9b9;stroke-width:1px;stroke-linecap:butt;stroke-linejoin:miter;stroke-opacity:1"
     d="M 64.5,-5.0595866 V 262.17858"
     id="path53051" />
  <path
     style="fill:none;stroke:#b9b9b9;stroke-width:1px;stroke-linecap:butt;stroke-linejoin:miter;stroke-opacity:1"
     d="M 224.5,-5.0595866 V 262.17858"
     id="path53053" />
  <path
     style="fill:none;stroke:#b9b9b9;stroke-width:1px;stroke-linecap:butt;stroke-linejoin:miter;stroke-opacity:1"
     d="M 96.5,-5.0595866 V 262.17858"
     id="path53055" />
  <path
     style="fill:none;stroke:#b9b9b9;stroke-width:1px;stroke-linecap:butt;stroke-linejoin:miter;stroke-opacity:1"
     d="M 262.14888,128.58929 H -5.0892883"
     id="path53057" />
  <path
     style="fill:none;stroke:#b9b9b9;stroke-width:1px;stroke-linecap:butt;stroke-linejoin:miter;stroke-opacity:1"
     d="M 262.14888,160.58929 H -5.0892883"
     id="path53059" />
  <path
     style="fill:none;stroke:#b9b9b9;stroke-width:1px;stroke-linecap:butt;stroke-linejoin:miter;stroke-opacity:1"
     d="M 262.08929,32.589292 H -5.1488783"
     id="path53061" />
  <path
     style="fill:none;stroke:#b9b9b9;stroke-width:1px;stroke-linecap:butt;stroke-linejoin:miter;stroke-opacity:1"
     d="M 262.14888,192.58929 H -5.0892883"
     id="path53063" />
  <path
     style="fill:none;stroke:#b9b9b9;stroke-width:1px;stroke-linecap:butt;stroke-linejoin:miter;stroke-opacity:1"
     d="M 262.14888,64.589292 H -5.0892883"
     id="path53065" />
  <path
     style="fill:none;stroke:#b9b9b9;stroke-width:1px;stroke-linecap:butt;stroke-linejoin:miter;stroke-opacity:1"
     d="M 262.14888,224.58929 H -5.0892883"
     id="path53067" />
  <path
     style="fill:none;stroke:#b9b9b9;stroke-width:1px;stroke-linecap:butt;stroke-linejoin:miter;stroke-opacity:1"
     d="M 262.14888,96.589292 H -5.0892883"
     id="path53069" />
  <circle
     style="fill:#ff0000;stroke:none;stroke-width:0.999998;stroke-linecap:round;stroke-opacity:1;paint-order:stroke markers fill;stop-color:#000000"
     id="path55277"
     cx="109.9798"
     cy="110.11279"
     r="5.9635501" />
  <path
     d="m 82.27591,94.104857 q -0.116132,-0.248582 -0.192772,-0.562206 -0.07664,-0.313624 -0.140501,-0.574978 -0.536458,-2.19537 -0.317941,-4.021308 0.27079,-1.838712 0.879569,-3.427661 0.648278,-1.653995 1.452188,-3.124451 0.856181,-1.48323 1.503281,-2.915369 0.686596,-1.497181 0.98175,-3.009495 0.334654,-1.577356 -0.09963,-3.354562 -0.58755,-2.404454 -2.369272,-3.575439 -1.729452,-1.183758 -4.970238,-0.391843 -1.881747,0.459822 -3.649718,1.611937 -1.780744,1.099844 -2.974915,2.333313 l -2.203227,-2.89592 q 1.692514,-1.687595 3.721839,-2.903574 2.016551,-1.268249 5.257337,-2.060164 2.299913,-0.562005 4.190895,-0.303989 1.930479,0.192972 3.361438,1.061926 1.48323,0.856181 2.441393,2.283803 0.958162,1.427621 1.392439,3.204827 0.574778,2.352183 0.277264,4.308209 -0.258017,1.890981 -0.998063,3.622791 -0.700549,1.666767 -1.648498,3.227814 -0.895679,1.548272 -1.648498,3.227811 -0.713322,1.614497 -1.049154,3.41371 -0.283562,1.78644 0.252897,3.98181 z m 0.627827,7.102933 q -0.344867,-1.411324 0.247602,-2.386974 0.631967,-1.040696 1.991005,-1.37279 1.411311,-0.344866 2.452009,0.287101 1.027924,0.579696 1.37279,1.991009 0.332094,1.359044 -0.299873,2.399734 -0.631967,1.0407 -2.043276,1.38557 -1.35904,0.33209 -2.399736,-0.29988 -0.988427,-0.64473 -1.320521,-2.00377 z"
     style="font-size:40px;line-height:1.25;font-family:'PT Sans';-inkscape-font-specification:'PT Sans';stroke-width:1"
     id="path1161" />
  <path
     d="m 124.90473,138.88106 q 0.036,-0.20075 0.12391,-0.42408 0.0879,-0.22333 0.16113,-0.40944 0.61523,-1.56329 1.53063,-2.5786 0.95262,-1.00065 2.00346,-1.70474 1.10271,-0.72666 2.22127,-1.27514 1.15578,-0.53383 2.16267,-1.12625 1.05876,-0.61499 1.88628,-1.40697 0.87938,-0.81455 1.37742,-2.08007 0.67382,-1.71219 0.0936,-3.18711 -0.54296,-1.46027 -2.85068,-2.36846 -1.33997,-0.52734 -2.90759,-0.58545 -1.55297,-0.0953 -2.80696,0.14193 l -0.0968,-2.70322 q 1.75132,-0.29946 3.50504,-0.16811 1.76837,0.0941 4.0761,1.00232 1.63773,0.64452 2.67561,1.61179 1.08975,0.9447 1.58636,2.08583 0.53383,1.15578 0.50381,2.43355 -0.03,1.27777 -0.52805,2.5433 -0.65917,1.67496 -1.67831,2.73541 -0.96727,1.03787 -2.15907,1.77246 -1.13993,0.71201 -2.3848,1.25376 -1.20765,0.55641 -2.3848,1.25377 -1.12528,0.67479 -2.10048,1.62358 -0.93797,0.96343 -1.5532,2.52673 z m -2.66335,4.58303 q 0.39551,-1.00497 1.17355,-1.34357 0.82992,-0.36117 1.79767,0.0197 1.00498,0.3955 1.36615,1.22541 0.37581,0.79269 -0.0197,1.79767 -0.38086,0.96776 -1.21077,1.32892 -0.82992,0.36117 -1.83489,-0.0343 -0.96776,-0.38085 -1.32893,-1.21077 -0.32395,-0.81526 0.0569,-1.78302 z"
     style="font-size:40px;line-height:1.25;font-family:'PT Sans';-inkscape-font-specification:'PT Sans'"
     id="path1110" />
</svg>
